# xmcd
#
# Track frame offsets: 
#        150
#        22784
#        46292
#        66161
#        91238
#        114488
#        134643
#        158643
#        180885
#        202430
#        221514
#        245092
#        265198
#
# Disc length: 3841 seconds
#
# Revision: 0
# Processed by: cddbd v1.5.2PL0 Copyright (c) Steve Scherf et al.
# Submitted via: ExactAudioCopy v0.99pb3
#
DISCID=b60eff0d
DTITLE=怡君 - 獨家愛唱II 怡君
DYEAR=2007
DGENRE=Country
TTITLE0=月亮01
TTITLE1=香巴拉並不遙遠02
TTITLE2=康定情歌青春舞曲03
TTITLE3=月光下的鳳尾竹04
TTITLE4=有一個美麗的地方05
TTITLE5=可愛的一朵玫瑰花06
TTITLE6=天堂07
TTITLE7=故鄉情08
TTITLE8=一杯美酒09
TTITLE9=青藏高原10
TTITLE10=夢駝鈴11
TTITLE11=茉莉花12
TTITLE12=我祈禱13
EXTD=
EXTT0=
EXTT1=
EXTT2=
EXTT3=
EXTT4=
EXTT5=
EXTT6=
EXTT7=
EXTT8=
EXTT9=
EXTT10=
EXTT11=
EXTT12=
PLAYORDER=
